<?xml version="1.0" encoding="utf-8"?>
<!-- Generator: Adobe Illustrator 18.1.0, SVG Export Plug-In . SVG Version: 6.00 Build 0)  -->
<!DOCTYPE svg PUBLIC "-//W3C//DTD SVG 1.1//EN" "http://www.w3.org/Graphics/SVG/1.1/DTD/svg11.dtd">
<svg version="1.1" xmlns="http://www.w3.org/2000/svg" xmlns:xlink="http://www.w3.org/1999/xlink" x="0px" y="0px"
	 viewBox="0 0 235 75" enable-background="new 0 0 235 75" xml:space="preserve">
<g id="Layer_1" display="none">
	<rect x="0.5" y="0.5" display="inline" width="234" height="74"/>
</g>
<g id="Layer_2">
	<rect x="0.5" y="0.5" fill="none" stroke="#FFFFFF" stroke-miterlimit="10" width="234" height="74"/>
</g>
<g id="text">
	<g>
		<path fill="#FFFFFF" d="M19.9,33.4V19.1h1v14.3H19.9z"/>
		<path fill="#FFFFFF" d="M32.8,29.7c0,1.2-0.4,2.1-1.3,2.8c-0.9,0.7-2,1-3.5,1c-1.7,0-3.1-0.2-4-0.6v-1c1,0.4,2.3,0.7,3.9,0.7
			c1.2,0,2.1-0.3,2.8-0.8c0.7-0.5,1-1.2,1-2.1c0-0.5-0.1-1-0.3-1.3c-0.2-0.4-0.6-0.7-1.1-1c-0.5-0.3-1.3-0.6-2.3-0.9
			c-1.5-0.5-2.5-1-3-1.6s-0.8-1.4-0.8-2.3c0-1.1,0.4-1.9,1.3-2.6c0.8-0.7,1.9-1,3.2-1c1.3,0,2.6,0.3,3.8,0.8L32,20.5
			c-1.2-0.5-2.3-0.7-3.4-0.7c-1.1,0-1.9,0.2-2.5,0.7s-0.9,1.2-0.9,2c0,0.5,0.1,1,0.3,1.3c0.2,0.3,0.5,0.6,0.9,0.9
			c0.4,0.3,1.2,0.6,2.2,1c1.1,0.4,2,0.8,2.5,1.1c0.6,0.4,1,0.8,1.2,1.2C32.7,28.5,32.8,29,32.8,29.7z"/>
		<path fill="#FFFFFF" d="M39.5,33.4h-1V20h-4.6v-0.9h10.3V20h-4.6V33.4z"/>
		<path fill="#FFFFFF" d="M53.2,28.3h-5.8l-2,5h-1.1L50,19h0.6l5.6,14.3h-1.1L53.2,28.3z M47.7,27.4h5.1l-1.9-5.1
			c-0.2-0.4-0.4-1-0.6-1.7c-0.2,0.6-0.4,1.2-0.6,1.7L47.7,27.4z"/>
		<path fill="#FFFFFF" d="M68.7,33.4h-1l-8.5-12.7h-0.1c0.1,1.5,0.1,2.6,0.1,3.4v9.3h-1V19.1h1l8.4,12.7h0.1
			c-0.1-1.2-0.1-2.3-0.1-3.3v-9.3h1V33.4z"/>
		<path fill="#FFFFFF" d="M72.7,19.1h3.9c1.8,0,3.1,0.3,3.9,0.9c0.8,0.6,1.2,1.5,1.2,2.7c0,0.8-0.3,1.5-0.8,2.1
			c-0.5,0.6-1.2,0.9-2.2,1.1v0.1c1.1,0.2,2,0.5,2.5,1.1s0.8,1.3,0.8,2.3c0,1.3-0.4,2.3-1.3,3c-0.9,0.7-2.1,1.1-3.7,1.1h-4.4V19.1z
			 M73.7,25.5h3.1c1.3,0,2.3-0.2,2.9-0.7c0.6-0.4,0.9-1.1,0.9-2.1s-0.3-1.6-1-2.1C79,20.2,78,20,76.6,20h-2.9V25.5z M73.7,26.3v6.2
			h3.4c2.6,0,4-1.1,4-3.2c0-2-1.4-2.9-4.2-2.9H73.7z"/>
		<path fill="#FFFFFF" d="M95.7,19.1v9.2c0,1.6-0.5,2.9-1.4,3.8c-1,0.9-2.3,1.4-4,1.4c-1.7,0-2.9-0.5-3.9-1.4s-1.4-2.2-1.4-3.9v-9.2
			h1v9.2c0,1.4,0.4,2.4,1.1,3.2s1.8,1.1,3.2,1.1c1.4,0,2.4-0.4,3.2-1.1c0.7-0.8,1.1-1.8,1.1-3.1v-9.3H95.7z"/>
		<path fill="#FFFFFF" d="M99.6,33.4V19.1h1v13.3h6.8v0.9H99.6z"/>
		<path fill="#FFFFFF" d="M26,41.8c-1.8,0-3.2,0.6-4.2,1.7c-1,1.1-1.5,2.7-1.5,4.7c0,2,0.5,3.6,1.5,4.7c1,1.1,2.4,1.7,4.2,1.7
			c1.2,0,2.3-0.2,3.3-0.5v0.9c-0.9,0.3-2.1,0.5-3.5,0.5c-2,0-3.6-0.6-4.7-1.9s-1.7-3.1-1.7-5.4c0-1.5,0.3-2.7,0.8-3.8
			c0.6-1.1,1.3-2,2.4-2.6c1-0.6,2.2-0.9,3.6-0.9c1.4,0,2.6,0.3,3.7,0.8l-0.4,0.9C28.2,42.1,27.1,41.8,26,41.8z"/>
		<path fill="#FFFFFF" d="M40.2,51.7c0,1.2-0.4,2.1-1.3,2.8c-0.9,0.7-2,1-3.5,1c-1.7,0-3.1-0.2-4-0.6v-1c1,0.4,2.3,0.7,3.9,0.7
			c1.2,0,2.1-0.3,2.8-0.8c0.7-0.5,1-1.2,1-2.1c0-0.5-0.1-1-0.3-1.3c-0.2-0.4-0.6-0.7-1.1-1c-0.5-0.3-1.3-0.6-2.3-0.9
			c-1.5-0.5-2.5-1-3-1.6c-0.6-0.6-0.8-1.4-0.8-2.3c0-1.1,0.4-1.9,1.3-2.6c0.8-0.7,1.9-1,3.2-1c1.3,0,2.6,0.3,3.8,0.8l-0.4,0.9
			c-1.2-0.5-2.3-0.7-3.4-0.7c-1.1,0-1.9,0.2-2.5,0.7s-0.9,1.2-0.9,2c0,0.5,0.1,1,0.3,1.3c0.2,0.3,0.5,0.6,0.9,0.9
			c0.4,0.3,1.2,0.6,2.2,1c1.1,0.4,2,0.8,2.5,1.1c0.6,0.4,1,0.8,1.2,1.2C40,50.5,40.2,51,40.2,51.7z"/>
		<path fill="#FFFFFF" d="M51.1,51.7c0,1.2-0.4,2.1-1.3,2.8c-0.9,0.7-2,1-3.5,1c-1.7,0-3.1-0.2-4-0.6v-1c1,0.4,2.3,0.7,3.9,0.7
			c1.2,0,2.1-0.3,2.8-0.8c0.7-0.5,1-1.2,1-2.1c0-0.5-0.1-1-0.3-1.3c-0.2-0.4-0.6-0.7-1.1-1c-0.5-0.3-1.3-0.6-2.3-0.9
			c-1.5-0.5-2.5-1-3-1.6c-0.6-0.6-0.8-1.4-0.8-2.3c0-1.1,0.4-1.9,1.3-2.6c0.8-0.7,1.9-1,3.2-1c1.3,0,2.6,0.3,3.8,0.8l-0.4,0.9
			c-1.2-0.5-2.3-0.7-3.4-0.7c-1.1,0-1.9,0.2-2.5,0.7s-0.9,1.2-0.9,2c0,0.5,0.1,1,0.3,1.3c0.2,0.3,0.5,0.6,0.9,0.9
			c0.4,0.3,1.2,0.6,2.2,1c1.1,0.4,2,0.8,2.5,1.1c0.6,0.4,1,0.8,1.2,1.2C50.9,50.5,51.1,51,51.1,51.7z"/>
		<path fill="#FFFFFF" d="M65.6,55.4l-5.3-13.2h-0.1c0.1,0.8,0.1,1.6,0.1,2.5v10.7h-1V41.1h1.5l5.1,12.6h0.1L71,41.1h1.5v14.3h-1
			V44.6c0-0.8,0-1.5,0.1-2.3h-0.1l-5.3,13.2H65.6z"/>
		<path fill="#FFFFFF" d="M84.3,55.4h-7.8V41.1h7.8V42h-6.8v5.4H84v0.9h-6.4v6.1h6.8V55.4z"/>
		<path fill="#FFFFFF" d="M95.4,55.4h-7.8V41.1h7.8V42h-6.8v5.4H95v0.9h-6.4v6.1h6.8V55.4z"/>
		<path fill="#FFFFFF" d="M102.3,55.4h-1V42h-4.6v-0.9H107V42h-4.6V55.4z"/>
		<path fill="#FFFFFF" d="M119.6,41.1v9.2c0,1.6-0.5,2.9-1.4,3.8c-1,0.9-2.3,1.4-4,1.4c-1.7,0-2.9-0.5-3.9-1.4s-1.4-2.2-1.4-3.9
			v-9.2h1v9.2c0,1.4,0.4,2.4,1.1,3.2s1.8,1.1,3.2,1.1c1.4,0,2.4-0.4,3.2-1.1c0.7-0.8,1.1-1.8,1.1-3.1v-9.3H119.6z"/>
		<path fill="#FFFFFF" d="M132.1,45.2c0,1.4-0.5,2.4-1.4,3.2s-2.3,1.1-4,1.1h-2.2v5.9h-1V41.1h3.5C130.4,41.1,132.1,42.5,132.1,45.2
			z M124.5,48.6h2c1.6,0,2.8-0.3,3.5-0.8s1.1-1.4,1.1-2.6c0-1.1-0.3-1.9-1-2.4c-0.7-0.5-1.7-0.8-3.1-0.8h-2.4V48.6z"/>
	</g>
</g>
<g id="Layer_3">
	<rect x="199.5" y="10.5" fill="none" stroke="#FFFFFF" stroke-miterlimit="10" width="25" height="25"/>
	<rect x="202.5" y="13.5" fill="none" stroke="#FFFFFF" stroke-miterlimit="10" width="5" height="12"/>
	<rect x="210.5" y="13.5" fill="none" stroke="#FFFFFF" stroke-miterlimit="10" width="11" height="15"/>
</g>
</svg>
