<?xml version="1.0" encoding="utf-8"?>
<!-- Generator: Adobe Illustrator 17.1.0, SVG Export Plug-In . SVG Version: 6.00 Build 0)  -->
<!DOCTYPE svg PUBLIC "-//W3C//DTD SVG 1.1//EN" "http://www.w3.org/Graphics/SVG/1.1/DTD/svg11.dtd">
<svg version="1.1" id="Layer_1" xmlns:rdf="http://www.w3.org/1999/02/22-rdf-syntax-ns#" xmlns:svg="http://www.w3.org/2000/svg"
	 xmlns="http://www.w3.org/2000/svg" xmlns:xlink="http://www.w3.org/1999/xlink" x="0px" y="0px"
	 viewBox="1323.3 1619.9 2917.2 1822.4" enable-background="new 1323.3 1619.9 2917.2 1822.4" xml:space="preserve">
<g id="g3184">
	<g id="g3347" transform="matrix(14.391698,0,0,14.391698,-67.1924,-2246.9945)">
		
			<radialGradient id="path22_1_" cx="138.5" cy="320.1134" r="17.7707" gradientTransform="matrix(14.3917 0 0 -14.3917 -1714.2047 4913.8789)" gradientUnits="userSpaceOnUse">
			<stop  offset="0" style="stop-color:#E40731"/>
			<stop  offset="0.4702" style="stop-color:#E52524"/>
			<stop  offset="0.6566" style="stop-color:#CC1F2C"/>
			<stop  offset="0.8645" style="stop-color:#B71A31"/>
			<stop  offset="1" style="stop-color:#AF1833"/>
		</radialGradient>
		<path id="path22" fill="url(#path22_1_)" d="M263.5,287.4c9.7,0.5,19.7,5.2,28,18c0,0-8.9,19.8-28.3,20.9
			c21.7,1.2,31.7-20.9,31.7-20.9C285.6,291.2,274.3,286.9,263.5,287.4z"/>
		
			<radialGradient id="path35_1_" cx="138.3307" cy="320.1136" r="17.3249" gradientTransform="matrix(14.3917 0 0 -14.3917 -1714.2047 4913.8789)" gradientUnits="userSpaceOnUse">
			<stop  offset="0" style="stop-color:#AF1833"/>
			<stop  offset="0.1355" style="stop-color:#B71A31"/>
			<stop  offset="0.3434" style="stop-color:#CC1F2C"/>
			<stop  offset="0.5298" style="stop-color:#E52524"/>
			<stop  offset="1" style="stop-color:#E40731"/>
		</radialGradient>
		<path id="path35" fill="url(#path35_1_)" d="M291.5,305.4c-8.3-12.8-18.3-17.5-28-18c-0.5,0-1,0.1-1.5,0.1
			c9.3,0.9,18.7,5.7,26.6,17.9c0,0-8.5,18.8-26.9,20.8c0.5,0.1,1,0.1,1.5,0.1C282.6,325.2,291.5,305.4,291.5,305.4z"/>
		
			<radialGradient id="path48_1_" cx="129.0673" cy="318.3013" r="32.6903" gradientTransform="matrix(14.3917 0 0 -14.3917 -1714.2047 4913.8789)" gradientUnits="userSpaceOnUse">
			<stop  offset="0" style="stop-color:#E40731"/>
			<stop  offset="0.4702" style="stop-color:#E52524"/>
			<stop  offset="0.6566" style="stop-color:#CC1F2C"/>
			<stop  offset="0.8645" style="stop-color:#B71A31"/>
			<stop  offset="1" style="stop-color:#AF1833"/>
		</radialGradient>
		<path id="path48" fill="url(#path48_1_)" d="M131.5,344.1c2.4,0.5,4.9,0.8,7.3,0.9c10.3,0.6,20.3-1.6,30.7-6.8
			c6.5-3.3,12.6-7.5,18.4-11.9c-0.8-0.6-1.5-1.2-2.3-1.9c-55.2,42.2-86.9-3.6-86.9-3.6c1.6,3.2,3.7,6.2,6.2,8.9
			C111.5,336.9,121,342,131.5,344.1L131.5,344.1z"/>
		<path id="path50" fill="none" d="M293.8,298c1.7,2.2,3.3,4.6,4.9,7.1c-1-2-2.2-3.8-3.4-5.3C294.9,299.2,294.4,298.6,293.8,298
			L293.8,298z"/>
		
			<radialGradient id="path63_1_" cx="132.9181" cy="320.2115" r="75.3642" gradientTransform="matrix(14.3917 0 0 -14.3917 -1714.2047 4913.8789)" gradientUnits="userSpaceOnUse">
			<stop  offset="0" style="stop-color:#AF1833"/>
			<stop  offset="0.1355" style="stop-color:#B71A31"/>
			<stop  offset="0.3434" style="stop-color:#CC1F2C"/>
			<stop  offset="0.5298" style="stop-color:#E52524"/>
			<stop  offset="1" style="stop-color:#E40731"/>
		</radialGradient>
		<path id="path63" fill="url(#path63_1_)" d="M98.7,320.8c4.7,3,10.2,5.5,16.9,7.3c1.3,0.3,2.6,0.6,3.9,0.9
			c12.8,2.5,25.1,0.8,35.7-5c5.8-3.2,11.1-7.3,16.2-11.6c0.2,0.2,0.4,0.3,0.6,0.5c2.6,2.2,5.2,4.5,7.9,6.7c0.9,0.7,1.8,1.5,2.8,2.3
			l1,0.8c0.6,0.5,1.3,1.1,2,1.6C130.4,366.6,98.7,320.8,98.7,320.8z M293.8,298c0.5,0.6,1,1.2,1.5,1.8c1.2,1.5,2.4,3.3,3.4,5.3
			c-1.3-7.6-4.8-14.3-10.4-20.2c-7.1-7.5-17.2-12.6-28.5-14.8c-4-0.8-8-1.5-12-1.4c-5.7,0-11.1,0.6-16.6,2.3
			c-4.9,1.5-9.9,3.7-15,6.6c-1.3,0.8-2.6,1.5-3.9,2.4l0,0c-8.7-3-17.9-4.3-27.7-5.4l34.5,23.3C253,271.6,276.6,275.6,293.8,298
			L293.8,298z"/>
		
			<radialGradient id="path76_1_" cx="135.7318" cy="321.4416" r="39.7466" gradientTransform="matrix(14.3917 0 0 -14.3917 -1714.2047 4913.8789)" gradientUnits="userSpaceOnUse">
			<stop  offset="0" style="stop-color:#E40731"/>
			<stop  offset="0.4702" style="stop-color:#E52524"/>
			<stop  offset="0.6566" style="stop-color:#CC1F2C"/>
			<stop  offset="0.8645" style="stop-color:#B71A31"/>
			<stop  offset="1" style="stop-color:#AF1833"/>
		</radialGradient>
		<path id="path76" fill="url(#path76_1_)" d="M246,285.3c7.3-2.7,16.1-3.3,24.1-1.7c5,1,9.5,2.8,13.4,5.3c3.6,2.3,7.3,5.6,10.3,9.1
			c-17.2-22.4-40.8-26.4-74.8-0.1l-34.5-23.3c12.6,8.4,23.6,17.4,34.3,26.5C227.3,294.6,236.2,288.9,246,285.3z"/>
		
			<radialGradient id="path95_1_" cx="132.9181" cy="320.1737" r="75.4977" gradientTransform="matrix(14.3917 0 0 -14.3917 -1714.2047 4913.8789)" gradientUnits="userSpaceOnUse">
			<stop  offset="5.600000e-03" style="stop-color:#3C3C3B"/>
			<stop  offset="8.780000e-02" style="stop-color:#3F3F3E"/>
			<stop  offset="0.1842" style="stop-color:#474746"/>
			<stop  offset="0.2874" style="stop-color:#565554"/>
			<stop  offset="0.3021" style="stop-color:#585857"/>
			<stop  offset="0.4905" style="stop-color:#4F4E4E"/>
			<stop  offset="0.8505" style="stop-color:#383837"/>
			<stop  offset="1" style="stop-color:#2E2E2D"/>
		</radialGradient>
		<path id="path95" fill="url(#path95_1_)" d="M160.5,290.3c11.3,6.8,17.4,13.5,26.5,21.1c8.3,7,25,20.7,34.8,25.6
			c15.7,7.9,32.7,8.5,48.8,1.4c15.3-6.7,22.8-18.1,28.1-29.8c-1,2-2.2,3.8-3.4,5.3c-3.2,4.1-7.6,8.2-11.8,10.9
			c-3.9,2.5-8.4,4.3-13.4,5.3c-8,1.6-16.9,1-24.1-1.7c-16-5.9-29.6-17.4-42.7-28.5c-2.4-2-4.9-4.1-7.3-6.1
			c-8.1-6.6-16.8-13.4-26.5-18.3c-10.4-5.2-20.5-7.5-30.7-6.8c-2.4,0.1-4.9,0.5-7.3,0.9c-10.5,2.1-20,7.2-26.6,14.3
			c-2.5,2.7-4.6,5.7-6.2,8.9C117.4,277.4,140.5,278.3,160.5,290.3L160.5,290.3z"/>
		
			<radialGradient id="path114_1_" cx="132.918" cy="319.6759" r="74.2452" gradientTransform="matrix(14.3917 0 0 -14.3917 -1714.2047 4913.8789)" gradientUnits="userSpaceOnUse">
			<stop  offset="0" style="stop-color:#2E2E2D"/>
			<stop  offset="0.1495" style="stop-color:#383837"/>
			<stop  offset="0.5095" style="stop-color:#4F4E4E"/>
			<stop  offset="0.6979" style="stop-color:#585857"/>
			<stop  offset="0.7126" style="stop-color:#565554"/>
			<stop  offset="0.8158" style="stop-color:#474746"/>
			<stop  offset="0.9122" style="stop-color:#3F3F3E"/>
			<stop  offset="0.9944" style="stop-color:#3C3C3B"/>
		</radialGradient>
		<path id="path114" fill="url(#path114_1_)" d="M119.5,284.8c12.8-2.5,25.1-0.8,35.7,5c8.1,4.4,15.4,10.7,22.4,16.8
			c2.5,2.2,5.1,4.5,7.7,6.6c1.3,1,2.5,2.1,3.8,3.1c8.6,7.1,17.6,14.5,27.2,20c5.1,2.9,10.1,5.1,15,6.6c5.6,1.7,11,2.3,16.6,2.3
			c4,0,8-0.6,12-1.4c11.3-2.2,21.4-7.3,28.5-14.8c5.5-5.9,9.1-12.6,10.4-20.2c-5.3,11.7-12.8,23.1-28.1,29.8
			c-16.1,7-33.1,6.4-48.8-1.4c-9.8-4.9-26.5-18.5-34.8-25.6c-9.1-7.7-15.2-14.3-26.5-21.1c-19.9-12-43-13-61.8,2.7
			c4.7-3,10.2-5.5,16.9-7.3C116.9,285.3,118.2,285,119.5,284.8L119.5,284.8z"/>
		
			<radialGradient id="path123_1_" cx="131.5116" cy="318.6516" r="27.0481" fx="134.6449" fy="345.5177" gradientTransform="matrix(14.3917 0 0 -14.3917 -1714.2047 4913.8789)" gradientUnits="userSpaceOnUse">
			<stop  offset="0" style="stop-color:#FFFFFF"/>
			<stop  offset="3.740000e-02" style="stop-color:#FFFFFF;stop-opacity:0.9626"/>
			<stop  offset="1" style="stop-color:#FFFFFF;stop-opacity:0"/>
		</radialGradient>
		<path id="path123" fill="url(#path123_1_)" d="M182.2,323.8c-0.9-0.8-1.8-1.5-2.8-2.3c-2.2-1.8-4.3-3.6-6.4-5.4
			c-4.1,3.3-9.1,7.1-14.6,10.1c-7.9,4.3-16.7,6.5-26,6.5c-3.9,0-8-0.4-12-1.2c-1.3-0.3-2.6-0.6-4.1-0.9c-1.6-0.4-3.2-0.9-4.7-1.4
			c5.9,5.3,13.6,9,22.1,10.7c2.3,0.4,4.6,0.7,6.8,0.9c9.7,0.6,19.1-1.5,29-6.5c4.6-2.3,9.2-5.2,14.4-9c-0.3-0.2-0.6-0.5-0.9-0.7
			L182.2,323.8z"/>
		
			<radialGradient id="path130_1_" cx="137.6072" cy="321.4813" r="31.4622" gradientTransform="matrix(14.3917 0 0 -14.3917 -1714.2047 4913.8789)" gradientUnits="userSpaceOnUse">
			<stop  offset="0" style="stop-color:#FFFFFF"/>
			<stop  offset="1" style="stop-color:#FFFFFF;stop-opacity:0"/>
		</radialGradient>
		<path id="path130" fill="url(#path130_1_)" d="M291.5,292.1c-19.9-20.2-49.2-16-67.6-0.1l-10.6-10.7
			C243.1,260.7,279.3,271.6,291.5,292.1L291.5,292.1z"/>
		<path id="Glow_Stroke_2_" fill="#F5F4F4" d="M263.6,334.9c-5.3,0.3-10.7-0.1-16-1c-5.2-1-10.2-2.7-14.7-4.9
			c-9.1-4.3-17-9.9-24.2-15.8c-7.1-6-13.7-12.3-20.4-18.5c-3.4-3.1-6.8-6.1-10.5-9c-3.6-2.9-7.4-5.7-11.5-8.3
			c8.8,4.6,16.2,10.5,23.2,16.4c7,6,13.6,12.3,20.8,18.2c7.1,5.9,14.8,11.4,23.5,15.8C242.4,332.6,252.9,334.9,263.6,334.9z"/>
		<path id="Glow_Stroke_1_" fill="#F5F4F4" d="M254.8,271.2c-5-0.7-10.1-0.5-14.9,0.5c-4.9,0.9-9.5,2.6-13.8,4.5
			c-4.4,1.9-8.5,4.1-12.7,6.3c3.8-2.6,7.8-5,12.1-7.1c4.3-2.1,9-3.8,14.1-4.8c5-1,10.4-1.1,15.5-0.3c4.9,0.6,9.2,2,13.5,3.6
			C264,272.7,259.5,271.7,254.8,271.2L254.8,271.2z"/>
	</g>
</g>
<g id="g3333" transform="matrix(7.7567551,0,0,7.7567551,-1838.6301,905.78652)">
	<g id="g134">
		<path id="path136" fill="#3C3C3B" d="M427,303.7c0-1.5-0.2-2.7-0.8-3.5c-0.6-0.8-1.5-1.5-2.6-2.1c-1.2-0.5-2.6-1-4.3-1.5
			c-1.7-0.4-3.3-1-4.8-1.6c-1.5-0.6-2.7-1.6-3.8-2.8c-1.1-1.2-1.7-2.8-1.9-4.7c-0.2-1.5,0-2.8,0.6-4.1c0.6-1.2,1.4-2.3,2.4-3.3
			c1-1,2.3-1.7,3.8-2.3c1.5-0.6,3-0.9,4.5-0.9c1.8,0,3.3,0.3,4.6,0.9c1.3,0.6,2.4,1.3,3.3,2.2c0.9,0.9,1.6,1.8,2.1,2.8
			c0.5,0.9,0.8,1.7,0.9,2.4h-5c-0.4-1.3-1.2-2.3-2.3-3c-1.1-0.7-2.3-1-3.7-1c-0.9,0-1.8,0.2-2.9,0.5c-1,0.4-2,1.1-2.8,2.1
			c-0.9,1.1-1.2,2.2-1,3.4c0.2,1.1,0.7,1.9,1.6,2.5c0.8,0.6,1.9,1.1,3.3,1.6c1.4,0.5,2.9,1,4.5,1.5c1.6,0.5,3.2,1.3,4.6,2.2
			c1.4,0.9,2.6,2.1,3.4,3.4c0.8,1.4,1.2,3.1,1.2,5.2c0,1.6-0.3,3-1,4.2c-0.6,1.2-1.5,2.3-2.6,3.1c-1.1,0.8-2.4,1.5-3.8,1.9
			c-1.4,0.4-2.9,0.7-4.5,0.7c-1.6,0-3.1-0.3-4.6-0.8c-1.5-0.6-2.8-1.3-4-2.3c-1.2-1-2.1-2.2-2.8-3.6c-0.7-1.4-1-3.1-1-5h4.7
			c0,1.1,0.2,2.2,0.7,3.2c0.5,1,1.3,1.9,2.5,2.7c1.2,0.8,2.8,1.2,4.7,1.2c2.2,0,3.8-0.5,4.9-1.6C426.3,306.4,426.9,305.2,427,303.7
			L427,303.7z"/>
		<path id="path138" fill="#3C3C3B" d="M435.4,295.4c0-2.5,0.5-4.9,1.4-7.1c1-2.2,2.3-4.2,3.9-5.8s3.6-3,5.8-3.9
			c2.2-1,4.6-1.4,7.1-1.4c2.5,0,4.9,0.5,7.1,1.4c2.2,1,4.2,2.3,5.8,3.9c1.7,1.7,3,3.6,3.9,5.8c1,2.2,1.4,4.6,1.4,7.1
			c0,2.5-0.5,4.9-1.4,7.1c-1,2.2-2.3,4.2-3.9,5.8c-1.7,1.7-3.6,3-5.8,3.9c-2.2,1-4.6,1.4-7.1,1.4c-2.5,0-4.9-0.5-7.1-1.4
			c-2.2-1-4.2-2.3-5.8-3.9c-1.7-1.7-3-3.6-3.9-5.8C435.9,300.3,435.4,297.9,435.4,295.4L435.4,295.4z M440.1,295.4
			c0,1.9,0.4,3.6,1.1,5.3c0.7,1.7,1.7,3.1,2.9,4.4c1.2,1.2,2.7,2.2,4.4,2.9c1.7,0.7,3.4,1.1,5.3,1.1c1.9,0,3.6-0.4,5.3-1.1
			c1.7-0.7,3.1-1.7,4.4-2.9c1.2-1.2,2.2-2.7,2.9-4.4c0.7-1.7,1.1-3.4,1.1-5.3c0-1.9-0.4-3.6-1.1-5.3c-0.7-1.7-1.7-3.1-2.9-4.4
			c-1.2-1.2-2.7-2.2-4.4-2.9c-1.7-0.7-3.4-1.1-5.3-1.1c-1.9,0-3.6,0.4-5.3,1.1c-1.7,0.7-3.1,1.7-4.4,2.9c-1.2,1.2-2.2,2.7-2.9,4.4
			C440.4,291.7,440.1,293.5,440.1,295.4z"/>
		<path id="path140" fill="#3C3C3B" d="M501.7,292.1c0-1.4-0.3-2.8-0.8-4c-0.5-1.2-1.3-2.3-2.2-3.3c-0.9-0.9-2-1.7-3.3-2.2
			c-1.2-0.5-2.6-0.8-3.9-0.8c-1.4,0-2.7,0.3-3.9,0.9c-1.2,0.6-2.3,1.3-3.3,2.3c-0.9,1-1.7,2.1-2.2,3.3c-0.6,1.2-0.8,2.5-0.8,3.8
			l0.1,20h-4.7v-33.4h4.7v3.1c0.4-0.7,1-1.4,1.8-2c0.8-0.6,1.6-1.1,2.5-1.5c0.9-0.4,1.9-0.7,2.9-1c1-0.2,2-0.3,3.1-0.3
			c2,0,4,0.4,5.8,1.2c1.8,0.8,3.4,1.9,4.8,3.2c1.4,1.4,2.4,3,3.2,4.8c0.8,1.8,1.2,3.8,1.2,5.8l0.1,20h-4.8L501.7,292.1L501.7,292.1z
			"/>
		<path id="path142" fill="#3C3C3B" d="M529.9,303.7c0-1.5-0.2-2.7-0.8-3.5c-0.6-0.8-1.5-1.5-2.6-2.1c-1.2-0.5-2.6-1-4.3-1.5
			c-1.7-0.4-3.3-1-4.8-1.6c-1.5-0.6-2.7-1.6-3.8-2.8c-1.1-1.2-1.7-2.8-1.9-4.7c-0.2-1.5,0-2.8,0.6-4.1c0.6-1.2,1.4-2.3,2.4-3.3
			c1-1,2.3-1.7,3.8-2.3c1.5-0.6,3-0.9,4.5-0.9c1.8,0,3.3,0.3,4.6,0.9c1.3,0.6,2.4,1.3,3.3,2.2c0.9,0.9,1.6,1.8,2.1,2.8
			c0.5,0.9,0.8,1.7,0.9,2.4h-5c-0.4-1.3-1.2-2.3-2.3-3c-1.1-0.7-2.3-1-3.7-1c-0.9,0-1.8,0.2-2.9,0.5c-1,0.4-2,1.1-2.8,2.1
			c-0.9,1.1-1.2,2.2-1,3.4c0.2,1.1,0.7,1.9,1.6,2.5c0.8,0.6,1.9,1.1,3.3,1.6c1.4,0.5,2.9,1,4.5,1.5c1.6,0.5,3.2,1.3,4.6,2.2
			c1.4,0.9,2.6,2.1,3.4,3.4s1.2,3.1,1.2,5.2c0,1.6-0.3,3-1,4.2c-0.6,1.2-1.5,2.3-2.6,3.1c-1.1,0.8-2.4,1.5-3.8,1.9
			c-1.4,0.4-2.9,0.7-4.5,0.7s-3.1-0.3-4.6-0.8c-1.5-0.6-2.8-1.3-4-2.3c-1.2-1-2.1-2.2-2.8-3.6c-0.7-1.4-1-3.1-1-5h4.7
			c0,1.1,0.2,2.2,0.7,3.2c0.5,1,1.3,1.9,2.5,2.7c1.2,0.8,2.8,1.2,4.7,1.2c2.2,0,3.8-0.5,4.9-1.6
			C529.3,306.4,529.9,305.2,529.9,303.7L529.9,303.7z"/>
		<path id="path144" fill="#3C3C3B" d="M562.9,297.1v-18.4h4.7v18.4c0,2-0.4,4-1.2,5.8c-0.8,1.8-1.8,3.4-3.2,4.8
			c-1.4,1.4-2.9,2.4-4.8,3.2c-1.8,0.8-3.8,1.2-5.8,1.2c-2,0-4-0.4-5.8-1.2c-1.8-0.8-3.4-1.9-4.8-3.2c-1.4-1.4-2.4-2.9-3.2-4.8
			c-0.8-1.8-1.2-3.8-1.2-5.8V297l-0.1-18.3h4.8l0.1,18.3v0.1c0,1.4,0.3,2.8,0.8,4c0.5,1.2,1.3,2.3,2.2,3.2c0.9,0.9,2,1.6,3.2,2.2
			c1.2,0.5,2.5,0.8,4,0.8c1.4,0,2.8-0.3,4-0.8c1.2-0.5,2.3-1.3,3.3-2.2c0.9-0.9,1.7-2,2.2-3.2C562.6,299.9,562.9,298.5,562.9,297.1z
			"/>
		<path id="path146" fill="#3C3C3B" d="M572,312.1l15.2-28.7H572v-4.7h23.1l-15.3,28.7h15.3v4.7L572,312.1L572,312.1z"/>
		<path id="path148" fill="#CD3333" d="M633.2,295.4c0,2.5-0.5,4.9-1.4,7.1c-1,2.2-2.3,4.2-3.9,5.8c-1.7,1.7-3.6,3-5.8,3.9
			c-2.2,1-4.6,1.4-7.1,1.4s-4.9-0.5-7.1-1.4c-2.2-1-4.2-2.3-5.8-3.9c-1.7-1.7-3-3.6-3.9-5.8c-1-2.2-1.4-4.6-1.4-7.1
			c0-2.5,0.5-4.9,1.4-7.1c1-2.2,2.3-4.2,3.9-5.8c1.7-1.7,3.6-3,5.8-3.9c2.2-1,4.6-1.4,7.1-1.4s5.1,0.7,7.8,2c2.7,1.4,4.6,3,5.9,5
			v-18.7h4.7V295.4z M628.6,295.4c0-1.9-0.4-3.6-1.1-5.3c-0.7-1.7-1.7-3.1-2.9-4.4c-1.2-1.2-2.7-2.2-4.4-2.9
			c-1.7-0.7-3.4-1.1-5.3-1.1c-1.9,0-3.6,0.4-5.3,1.1c-1.7,0.7-3.1,1.7-4.4,2.9c-1.2,1.2-2.2,2.7-2.9,4.4c-0.7,1.7-1.1,3.4-1.1,5.3
			c0,1.9,0.4,3.6,1.1,5.3c0.7,1.7,1.7,3.1,2.9,4.4c1.2,1.2,2.7,2.2,4.4,2.9c1.7,0.7,3.4,1.1,5.3,1.1c1.9,0,3.6-0.4,5.3-1.1
			c1.7-0.7,3.1-1.7,4.4-2.9c1.2-1.2,2.2-2.7,2.9-4.4C628.2,299,628.6,297.2,628.6,295.4z"/>
		<path id="path150" fill="#CD3333" d="M637.4,295.4c0-2.5,0.5-4.9,1.4-7.1c1-2.2,2.3-4.2,3.9-5.8c1.7-1.7,3.6-3,5.8-3.9
			c2.2-1,4.6-1.4,7.1-1.4c2.5,0,4.9,0.5,7.1,1.4c2.2,1,4.2,2.3,5.8,3.9c1.7,1.7,3,3.6,3.9,5.8c1,2.2,1.4,4.6,1.4,7.1
			c0,2.5-0.5,4.9-1.4,7.1c-1,2.2-2.3,4.2-3.9,5.8c-1.7,1.7-3.6,3-5.8,3.9c-2.2,1-4.6,1.4-7.1,1.4c-2.5,0-4.9-0.5-7.1-1.4
			c-2.2-1-4.2-2.3-5.8-3.9c-1.7-1.7-3-3.6-3.9-5.8C637.8,300.3,637.4,297.9,637.4,295.4L637.4,295.4z M642,295.4
			c0,1.9,0.4,3.6,1.1,5.3c0.7,1.7,1.7,3.1,2.9,4.4c1.2,1.2,2.7,2.2,4.4,2.9c1.7,0.7,3.4,1.1,5.3,1.1c1.9,0,3.6-0.4,5.3-1.1
			c1.7-0.7,3.1-1.7,4.4-2.9c1.2-1.2,2.2-2.7,2.9-4.4c0.7-1.7,1.1-3.4,1.1-5.3c0-1.9-0.4-3.6-1.1-5.3c-0.7-1.7-1.7-3.1-2.9-4.4
			c-1.2-1.2-2.7-2.2-4.4-2.9c-1.7-0.7-3.4-1.1-5.3-1.1c-1.9,0-3.6,0.4-5.3,1.1c-1.7,0.7-3.1,1.7-4.4,2.9c-1.2,1.2-2.2,2.7-2.9,4.4
			C642.4,291.7,642,293.5,642,295.4z M647.5,269.6c0-0.8,0.3-1.5,0.8-2c0.5-0.5,1.2-0.8,2-0.8s1.5,0.3,2,0.8c0.5,0.5,0.8,1.2,0.8,2
			c0,0.8-0.3,1.5-0.8,2c-0.5,0.5-1.2,0.8-2,0.8s-1.5-0.3-2-0.8C647.8,271.1,647.5,270.4,647.5,269.6z M658.2,269.6
			c0-0.8,0.3-1.5,0.8-2s1.2-0.8,2-0.8s1.5,0.3,2,0.8c0.5,0.5,0.8,1.2,0.8,2c0,0.8-0.3,1.5-0.8,2c-0.5,0.5-1.2,0.8-2,0.8
			s-1.5-0.3-2-0.8S658.2,270.4,658.2,269.6z"/>
		<path id="path152" fill="#CD3333" d="M703.5,292.1c0-1.4-0.3-2.8-0.8-4c-0.5-1.2-1.3-2.3-2.2-3.3c-0.9-0.9-2-1.7-3.3-2.2
			c-1.2-0.5-2.6-0.8-3.9-0.8c-1.4,0-2.7,0.3-3.9,0.9c-1.2,0.6-2.3,1.3-3.3,2.3c-0.9,1-1.7,2.1-2.2,3.3c-0.6,1.2-0.8,2.5-0.8,3.8
			l0.1,20h-4.7v-33.4h4.7v3.1c0.4-0.7,1-1.4,1.8-2c0.8-0.6,1.6-1.1,2.5-1.5c0.9-0.4,1.9-0.7,2.9-1c1-0.2,2-0.3,3.1-0.3
			c2,0,4,0.4,5.8,1.2c1.8,0.8,3.4,1.9,4.8,3.2c1.4,1.4,2.4,3,3.2,4.8c0.8,1.8,1.2,3.8,1.2,5.8l0.1,20h-4.8L703.5,292.1z"/>
		<path id="path154" fill="#CD3333" d="M744.4,278.7h4.7v15.9v14c0,2.5-0.5,4.9-1.4,7.1c-1,2.2-2.3,4.2-3.9,5.8
			c-1.7,1.7-3.6,3-5.8,3.9c-2.2,1-4.6,1.4-7.1,1.4s-4.9-0.5-7.1-1.4c-2.2-1-4.2-2.3-5.9-4c-0.9-0.9-1.7-1.9-2.4-3l3.4-3.4
			c0.6,1.2,1.4,2.2,2.3,3.1c1.2,1.2,2.7,2.2,4.4,2.9c1.7,0.7,3.4,1.1,5.3,1.1c1.9,0,3.6-0.4,5.3-1.1c1.7-0.7,3.1-1.7,4.4-2.9
			c1.2-1.2,2.2-2.7,2.9-4.4c0.7-1.7,1.1-3.4,1.1-5.3v-1c-0.2,0.2-0.5,0.5-0.7,0.7c-1.6,1.6-3.6,2.9-5.8,3.9c-2.2,1-4.6,1.4-7.1,1.4
			c-2.5,0-4.9-0.5-7.1-1.4c-2.2-1-4.2-2.3-5.8-3.9c-1.7-1.7-3-3.6-3.9-5.8c-1-2.2-1.4-4.6-1.4-7.1c0-2.5,0.5-4.9,1.4-7.1
			c1-2.2,2.3-4.2,3.9-5.8c1.7-1.7,3.6-3,5.8-3.9c2.2-1,4.6-1.4,7.1-1.4s4.9,0.5,7.1,1.4c2.2,1,4.2,2.3,5.8,4
			c0.3,0.2,0.5,0.5,0.7,0.7L744.4,278.7L744.4,278.7z M717,295.4c0,1.9,0.4,3.6,1.1,5.3c0.7,1.7,1.7,3.1,2.9,4.4
			c1.2,1.2,2.7,2.2,4.4,2.9c1.7,0.7,3.4,1.1,5.3,1.1c1.9,0,3.6-0.4,5.3-1.1c1.7-0.7,3.1-1.7,4.4-2.9c1.2-1.2,2.2-2.7,2.9-4.4
			c0.7-1.7,1.1-3.6,1.1-5.8c0-1.7-0.3-3.3-0.9-4.8c-0.8-1.6-1.8-3.1-3.1-4.3c-1.2-1.2-2.7-2.2-4.4-2.9c-1.7-0.7-3.4-1.1-5.3-1.1
			c-1.9,0-3.6,0.4-5.3,1.1c-1.7,0.7-3.1,1.7-4.4,2.9c-1.2,1.2-2.2,2.7-2.9,4.4C717.4,291.7,717,293.5,717,295.4L717,295.4z"/>
		<path id="path156" fill="#CD3333" d="M779,297.1v-18.4h4.7v18.4c0,2-0.4,4-1.2,5.8c-0.8,1.8-1.8,3.4-3.2,4.8
			c-1.4,1.4-2.9,2.4-4.8,3.2c-1.8,0.8-3.8,1.2-5.8,1.2c-2,0-4-0.4-5.8-1.2c-1.8-0.8-3.4-1.9-4.8-3.2c-1.4-1.4-2.4-2.9-3.2-4.8
			c-0.8-1.8-1.2-3.8-1.2-5.8V297l-0.1-18.3h4.8l0.1,18.3v0.1c0,1.4,0.3,2.8,0.8,4c0.5,1.2,1.3,2.3,2.2,3.2c0.9,0.9,2,1.6,3.2,2.2
			c1.2,0.5,2.5,0.8,4,0.8c1.4,0,2.8-0.3,4-0.8c1.2-0.5,2.3-1.3,3.3-2.2c0.9-0.9,1.7-2,2.2-3.2C778.8,299.9,779,298.5,779,297.1
			L779,297.1z M760.8,269.7c0-0.8,0.3-1.5,0.8-2c0.5-0.5,1.2-0.8,2-0.8c0.8,0,1.5,0.3,2,0.8c0.5,0.5,0.8,1.2,0.8,2s-0.3,1.5-0.8,2
			c-0.5,0.5-1.2,0.8-2,0.8c-0.8,0-1.5-0.3-2-0.8C761,271.1,760.8,270.5,760.8,269.7z M771.4,269.7c0-0.8,0.3-1.5,0.8-2
			c0.5-0.5,1.2-0.8,2-0.8c0.8,0,1.5,0.3,2,0.8c0.5,0.5,0.8,1.2,0.8,2s-0.3,1.5-0.8,2c-0.5,0.5-1.2,0.8-2,0.8c-0.8,0-1.5-0.3-2-0.8
			C771.7,271.1,771.4,270.5,771.4,269.7z"/>
	</g>
</g>
</svg>
