<svg version="1.1" id="Logo"
	 xmlns="http://www.w3.org/2000/svg" xmlns:xlink="http://www.w3.org/1999/xlink" xmlns:a="http://ns.adobe.com/AdobeSVGViewerExtensions/3.0/"
	 x="0px" y="0px" width="252px" height="60px" viewBox="0 0 252 60" enable-background="new 0 0 252 60" xml:space="preserve">
<g id="Logo-symbol">
	<g id="Logo-symbol_x5F_2">
		<path fill="#F49A23" d="M26,46c-0.7,0-1.4-0.4-1.7-1c-0.6-1-0.2-2.2,0.7-2.7l12-7c1-0.6,2.2-0.2,2.7,0.7c0.6,1,0.2,2.2-0.7,2.7
			l-12,7C26.7,45.9,26.3,46,26,46z"/>
	</g>
	<g id="Logo-symbol_x5F_1">
		<path fill="#EA6963" d="M26,46c-1.1,0-2-0.9-2-2V30c0-1.1,0.9-2,2-2c1.1,0,2,0.9,2,2v14C28,45.1,27.1,46,26,46z"/>
	</g>
	<g id="Logo-symbol_x5F_4">
		<path fill="#BFD852" d="M38,25c-0.3,0-0.7-0.1-1-0.3l-12-7c-1-0.6-1.3-1.8-0.7-2.7c0.6-1,1.8-1.3,2.7-0.7l12,7
			c1,0.6,1.3,1.8,0.7,2.7C39.4,24.6,38.7,25,38,25z"/>
	</g>
	<g id="Logo-symbol_x5F_7">
		<path fill="#31ACE2" d="M26,60c-0.3,0-0.7-0.1-1-0.3l-12-7c-1-0.6-1.3-1.8-0.7-2.7c0.6-1,1.8-1.3,2.7-0.7l12,7
			c1,0.6,1.3,1.8,0.7,2.7C27.4,59.6,26.7,60,26,60z"/>
	</g>
	<g id="Logo-symbol_x5F_3">
		<path fill="#FFCE30" d="M38,39c-1.1,0-2-0.9-2-2V23c0-1.1,0.9-2,2-2c1.1,0,2,0.9,2,2v14C40,38.1,39.1,39,38,39z"/>
	</g>
	<g id="Logo-symbol_x5F_5">
		<path fill="#6BC4A0" d="M14,25c-0.7,0-1.4-0.4-1.7-1c-0.6-1-0.2-2.2,0.7-2.7l12-7c1-0.6,2.2-0.2,2.7,0.7c0.6,1,0.2,2.2-0.7,2.7
			l-12,7C14.7,24.9,14.3,25,14,25z"/>
	</g>
	<g id="Logo-symbol_x5F_6">
		<path fill="#6BCCE3" d="M14,53c-1.1,0-2-0.9-2-2V23c0-1.1,0.9-2,2-2c1.1,0,2,0.9,2,2v28C16,52.1,15.1,53,14,53z"/>
	</g>
	<g id="Logo-symbol_x5F_9">
		<path fill="#EA6963" d="M50,46c-1.1,0-2-0.9-2-2V16c0-1.1,0.9-2,2-2c1.1,0,2,0.9,2,2v28C52,45.1,51.1,46,50,46z"/>
	</g>
	<g id="Logo-symbol_x5F_8">
		<path fill="#9A8DC3" d="M26,60c-0.7,0-1.4-0.4-1.7-1c-0.6-1-0.2-2.2,0.7-2.7l24-14c1-0.6,2.2-0.2,2.7,0.7c0.6,1,0.2,2.2-0.7,2.7
			l-24,14C26.7,59.9,26.3,60,26,60z"/>
	</g>
	<g id="Logo-symbol_x5F_10">
		<path fill="#F49A23" d="M50,18c-0.3,0-0.7-0.1-1-0.3l-24-14c-1-0.6-1.3-1.8-0.7-2.7c0.6-1,1.8-1.3,2.7-0.7l24,14
			c1,0.6,1.3,1.8,0.7,2.7C51.4,17.6,50.7,18,50,18z"/>
	</g>
	<g id="Logo-symbol_x5F_12">
		<path fill="#BFD852" d="M2,46c-1.1,0-2-0.9-2-2V16c0-1.1,0.9-2,2-2c1.1,0,2,0.9,2,2v28C4,45.1,3.1,46,2,46z"/>
	</g>
	<g id="Logo-symbol_x5F_11">
		<path fill="#FFCE30" d="M2,18c-0.7,0-1.4-0.4-1.7-1c-0.6-1-0.2-2.2,0.7-2.7l24-14c1-0.6,2.2-0.2,2.7,0.7c0.6,1,0.2,2.2-0.7,2.7
			l-24,14C2.7,17.9,2.3,18,2,18z"/>
	</g>
	<g id="Logo-symbol_x5F_dot">
		<circle fill="#EA6963" cx="26" cy="30" r="4"/>
	</g>
</g>
<g>
	<path d="M71.9,20.9c0-1.2,0.9-2.2,2.1-2.2c1.2,0,2.2,1,2.2,2.2c0,1.2-1,2.1-2.2,2.1C72.9,23,71.9,22.1,71.9,20.9z M72.4,26.9
		c0-0.4,0.3-0.7,0.7-0.7h1.8c0.4,0,0.7,0.4,0.7,0.7v13.4c0,0.4-0.4,0.7-0.7,0.7h-1.8c-0.4,0-0.7-0.3-0.7-0.7V26.9z"/>
	<path d="M80.1,26.9c0-0.4,0.3-0.7,0.7-0.7h0.8c0.3,0,0.5,0.2,0.6,0.4l0.4,1.3c0.3-0.4,2-2,5-2c4.5,0,5.7,3.1,5.7,7v7.4
		c0,0.4-0.4,0.7-0.7,0.7h-1.8c-0.4,0-0.7-0.3-0.7-0.7v-7.6c0-2.4-1-3.8-2.9-3.8c-2.3,0-3.7,1.6-3.9,2.1v9.2c0,0.5-0.3,0.7-0.9,0.7
		h-1.6c-0.4,0-0.7-0.3-0.7-0.7V26.9z"/>
	<path d="M98.6,28.9H97c-0.4,0-0.7-0.4-0.7-0.7v-1.3c0-0.4,0.3-0.7,0.7-0.7h1.7v-4.1c0-0.4,0.3-0.7,0.7-0.7h1.8
		c0.4,0,0.7,0.3,0.7,0.7v4.1h3.9c0.4,0,0.7,0.3,0.7,0.7v1.3c0,0.4-0.3,0.7-0.7,0.7h-3.9v7.9c0,1.2,0.5,1.5,1.2,1.5
		c0.9,0,1.8-0.4,2.4-0.7c0.4-0.3,0.7,0,0.9,0.3l0.6,1.5c0.2,0.4,0,0.6-0.4,0.9c-0.6,0.4-2.3,1.1-4.1,1.1c-2.9,0-3.7-1.8-3.7-4.4
		V28.9z"/>
	<path d="M116.3,25.9c3.8,0,6.8,2.8,6.8,6.8c0,0.3,0,0.8-0.1,1c0,0.4-0.4,0.6-0.7,0.6h-10.2c0,2,1.8,4,4.4,4c1.7,0,2.7-0.6,3.6-1.2
		c0.3-0.2,0.6-0.3,0.9,0.1l0.9,1.3c0.3,0.3,0.4,0.6-0.1,1c-1.1,0.9-3,1.8-5.5,1.8c-4.5,0-7.4-3.5-7.4-7.7
		C108.9,29.4,111.8,25.9,116.3,25.9z M119.9,32c-0.1-1.8-1.5-3.4-3.6-3.4c-2.3,0-3.7,1.5-4,3.4H119.9z"/>
	<path d="M126.4,26.9c0-0.4,0.3-0.7,0.7-0.7h0.8c0.3,0,0.6,0.2,0.6,0.5l0.4,1.3c0.3-0.4,1.8-2.2,4.5-2.2c1.4,0,3.2,0.4,2.7,1.4
		l-0.8,1.6c-0.2,0.4-0.6,0.5-0.9,0.4c-0.2-0.1-0.9-0.3-1.3-0.3c-2.2,0-3.4,1.7-3.5,2v9.4c0,0.6-0.4,0.7-1,0.7h-1.5
		c-0.4,0-0.7-0.3-0.7-0.7V26.9z"/>
	<path d="M143.5,31.7c1.5,0,3,0.4,3,0.4c0.1-2.3-0.5-3.4-2.4-3.4c-1.7,0-3.4,0.5-4.1,0.7c-0.4,0.1-0.7-0.2-0.8-0.6l-0.3-1.2
		c-0.1-0.5,0.1-0.7,0.5-0.9c0.3-0.1,2.4-0.8,5.1-0.8c4.7,0,5.2,2.8,5.2,6.5v7.9c0,0.4-0.4,0.7-0.7,0.7h-1.1c-0.3,0-0.4-0.1-0.6-0.5
		l-0.4-1c-0.8,0.8-2.3,1.9-4.5,1.9c-2.8,0-4.8-1.9-4.8-4.9C137.6,33.7,139.7,31.7,143.5,31.7z M143.1,38.7c1.5,0,3-1.1,3.4-1.8v-2.5
		c-0.2-0.1-1.3-0.5-2.7-0.5c-1.7,0-3,0.9-3,2.4C140.8,37.7,141.5,38.7,143.1,38.7z"/>
	<path d="M160.7,25.9c2.3,0,4,0.9,5.4,2.6c0.3,0.4,0.2,0.8-0.1,1.1l-1.2,1.1c-0.4,0.4-0.7,0.1-1-0.2c-0.7-0.7-1.9-1.5-3-1.5
		c-2.5,0-4.5,2-4.5,4.7c0,2.7,1.9,4.7,4.4,4.7c1.9,0,2.7-1.1,3.5-1.8c0.3-0.3,0.7-0.3,1-0.1l1,0.8c0.4,0.3,0.5,0.7,0.3,1.1
		c-1.2,1.8-3.2,3.1-5.8,3.1c-4.1,0-7.6-3.3-7.6-7.7C153.1,29.3,156.6,25.9,160.7,25.9z"/>
	<path d="M170.7,28.9H169c-0.4,0-0.7-0.4-0.7-0.7v-1.3c0-0.4,0.3-0.7,0.7-0.7h1.7v-4.1c0-0.4,0.3-0.7,0.7-0.7h1.8
		c0.4,0,0.7,0.3,0.7,0.7v4.1h3.9c0.4,0,0.7,0.3,0.7,0.7v1.3c0,0.4-0.3,0.7-0.7,0.7h-3.9v7.9c0,1.2,0.5,1.5,1.2,1.5
		c0.9,0,1.8-0.4,2.4-0.7c0.4-0.3,0.7,0,0.9,0.3l0.6,1.5c0.2,0.4,0,0.6-0.4,0.9c-0.6,0.4-2.3,1.1-4.1,1.1c-2.9,0-3.7-1.8-3.7-4.4
		V28.9z"/>
	<path d="M181.9,19.3c0-0.4,0.3-0.7,0.7-0.7h1.8c0.4,0,0.7,0.4,0.7,0.7v8.1c0.4-0.3,2-1.5,4.3-1.5c4.2,0,5.7,2.9,5.7,7v7.4
		c0,0.4-0.4,0.7-0.7,0.7h-1.8c-0.4,0-0.7-0.3-0.7-0.7v-7.5c0-2.4-1-3.9-2.9-3.9c-2.3,0-3.6,1.5-3.9,2.1v9.2c0,0.4-0.3,0.7-0.7,0.7
		h-1.8c-0.4,0-0.7-0.3-0.7-0.7V19.3z"/>
	<path d="M198.9,20.9c0-1.2,0.9-2.2,2.1-2.2c1.2,0,2.2,1,2.2,2.2c0,1.2-1,2.1-2.2,2.1C199.9,23,198.9,22.1,198.9,20.9z M199.4,26.9
		c0-0.4,0.3-0.7,0.7-0.7h1.8c0.4,0,0.7,0.4,0.7,0.7v13.4c0,0.4-0.4,0.7-0.7,0.7h-1.8c-0.4,0-0.7-0.3-0.7-0.7V26.9z"/>
	<path d="M207.1,26.9c0-0.4,0.3-0.7,0.7-0.7h0.8c0.3,0,0.5,0.2,0.6,0.4l0.4,1.3c0.3-0.4,2-2,5-2c4.5,0,5.7,3.1,5.7,7v7.4
		c0,0.4-0.4,0.7-0.7,0.7h-1.8c-0.4,0-0.7-0.3-0.7-0.7v-7.6c0-2.4-1-3.8-2.9-3.8c-2.3,0-3.7,1.6-3.9,2.1v9.2c0,0.5-0.3,0.7-0.9,0.7
		h-1.6c-0.4,0-0.7-0.3-0.7-0.7V26.9z"/>
	<path d="M237.9,41.1c0,4.6-3,6.9-6.8,6.9c-2.5,0-4.5-1.2-5.1-1.9c-0.3-0.2-0.3-0.6-0.2-0.8l0.8-1.4c0.2-0.4,0.6-0.5,1-0.2
		c0.5,0.4,1.8,1.4,3.5,1.4c2,0,3.7-1,3.7-4v-0.8c-0.3,0.2-1.9,1.1-3.8,1.1c-4,0-7.1-3.4-7.1-7.7c0-4.2,2.9-7.7,7-7.7
		c2.8,0,4.4,1.5,4.7,1.8l0.4-0.9c0.1-0.3,0.2-0.5,0.5-0.5h0.9c0.4,0,0.7,0.4,0.7,0.7V41.1z M231.3,38.3c2,0,3.4-1.2,3.4-1.2V31
		c-0.3-0.5-1.6-2.1-3.6-2.1c-2.5,0-4.2,2.2-4.2,4.7C227,36.1,228.9,38.3,231.3,38.3z"/>
	<path d="M241.8,39.8c-0.2-0.2-0.4-0.4-0.3-0.8l0.7-1.4c0.2-0.3,0.6-0.4,1-0.2c0.9,0.5,1.9,1.1,3.7,1.1c1.2,0,2-0.6,2-1.4
		c0-1-1.1-1.6-3.2-2.6c-2.3-1-4-2.2-4-4.7c0-1.9,1.3-4,4.9-4c2,0,3.6,0.6,4.3,1.1c0.4,0.3,0.5,0.7,0.3,1.1l-0.5,1
		c-0.2,0.4-0.7,0.4-1,0.3c-1-0.4-2-0.7-3.2-0.7c-1.3,0-1.9,0.6-1.9,1.3c0,1,1.1,1.5,2.5,2.2c2.7,1.2,4.8,2.1,4.8,4.9
		c0,2.3-2,4.3-5.3,4.3C244.3,41.4,242.6,40.4,241.8,39.8z"/>
</g>
</svg>
