<?xml version="1.0" encoding="utf-8"?>
<!-- Generator: Adobe Illustrator 18.1.0, SVG Export Plug-In . SVG Version: 6.00 Build 0)  -->
<!DOCTYPE svg PUBLIC "-//W3C//DTD SVG 1.1//EN" "http://www.w3.org/Graphics/SVG/1.1/DTD/svg11.dtd">
<svg version="1.1" id="Layer_1" xmlns="http://www.w3.org/2000/svg" xmlns:xlink="http://www.w3.org/1999/xlink" x="0px" y="0px"
	 viewBox="0 0 294.3 71.3" enable-background="new 0 0 294.3 71.3" xml:space="preserve">
<g>
	<path fill="#353535" d="M72.9,53.5V6.2c0-1.6,1.5-2.4,4.4-2.4h2.6c3,0,4.4,0.8,4.4,2.4V26l0.3,0.1L97.5,5.2c0.5-0.9,2-1.4,4.4-1.4
		h3.5c2.8,0,4.1,0.4,4.1,1.1c0,0.4-0.2,1-0.6,1.6L94.7,28.4l16.2,24.8c0.4,0.6,0.6,1.1,0.6,1.6c0,0.7-1.4,1.1-4.1,1.1H103
		c-2.5,0-4-0.5-4.5-1.4L84.6,32L84.4,32v21.4c0,1.6-1.5,2.4-4.4,2.4h-2.6C74.4,55.8,72.9,55,72.9,53.5z"/>
	<path fill="#353535" d="M118,51.1c-3.1-3.4-4.6-8.4-4.6-14.8c0-6.4,1.5-11.4,4.6-14.8c3.1-3.4,7.5-5.1,13.4-5.1
		c5.9,0,10.3,1.7,13.3,5.1c3,3.4,4.5,8.3,4.5,14.8c0,6.4-1.5,11.4-4.5,14.8c-3,3.4-7.5,5.1-13.3,5.1C125.5,56.3,121.1,54.6,118,51.1
		z M124.5,36.4c0,7.5,2.3,11.3,6.8,11.3s6.8-3.8,6.8-11.3c0-7.5-2.3-11.3-6.8-11.3S124.5,28.9,124.5,36.4z"/>
	<path fill="#353535" d="M169.3,56.3c-4.1,0-7.4-1.8-10-5.3c-2.6-3.5-3.8-8.4-3.8-14.5c0-6.2,1.4-11.1,4.1-14.6
		c2.7-3.6,6.6-5.4,11.5-5.4c2.9,0,5.4,0.8,7.5,2.3V2.4c0-1.6,1.5-2.4,4.4-2.4h2.1c3,0,4.4,0.8,4.4,2.4v40.3c0,3.1,0.1,5.6,0.4,7.7
		l0.4,3c0,0.8-1,1.4-3,1.8c-2,0.4-3.5,0.6-4.5,0.6c-1,0-1.6-0.1-2-0.3c-0.3-0.2-0.6-0.5-0.8-1c-0.2-0.4-0.3-0.8-0.4-1.1
		s-0.2-0.8-0.3-1.4c-0.1-0.7-0.2-1.1-0.3-1.2c-0.9,1.6-2.2,3-4,4C173.5,55.7,171.5,56.3,169.3,56.3z M172.5,47.3
		c2.4,0,4.4-1.5,6.1-4.4V26.5c-1.7-0.9-3.4-1.4-5.2-1.4c-4.6,0-6.9,3.7-6.9,11.1C166.5,43.6,168.5,47.3,172.5,47.3z"/>
	<path fill="#353535" d="M202.9,10.7c-3,0-4.4-0.8-4.4-2.4v-6c0-1.6,1.5-2.4,4.4-2.4h2.1c3,0,4.4,0.8,4.4,2.4v6
		c0,1.6-1.5,2.4-4.4,2.4H202.9z M198.4,53.5V19.3c0-1.6,1.5-2.4,4.4-2.4h2.1c3,0,4.4,0.8,4.4,2.4v34.2c0,1.6-1.5,2.4-4.4,2.4h-2.1
		C199.9,55.8,198.4,55,198.4,53.5z"/>
	<path fill="#353535" d="M218.2,53.5V30.1c0-3.7-0.1-6.3-0.4-7.8c-0.3-1.5-0.4-2.4-0.4-2.7c0-0.8,1-1.4,3-1.8c2-0.4,3.5-0.6,4.5-0.6
		c1,0,1.6,0.1,2,0.3c0.3,0.2,0.6,0.5,0.8,0.9c0.2,0.4,0.3,0.8,0.4,1c0.1,0.3,0.2,0.7,0.3,1.4c0.1,0.6,0.2,1,0.3,1.2
		c1.2-1.6,2.8-2.9,4.7-4c2-1.1,4.1-1.6,6.3-1.6c3.7,0,6.4,1,8.2,2.9c1.8,1.9,2.7,5,2.7,9v25c0,1.6-1.5,2.4-4.4,2.4h-2.1
		c-3,0-4.4-0.8-4.4-2.4V30.1c0-3.1-1.5-4.6-4.4-4.6c-2.5,0-4.4,1.4-5.9,4.3v23.7c0,1.6-1.5,2.4-4.4,2.4h-2.1
		C219.7,55.8,218.2,55,218.2,53.5z"/>
	<path fill="#353535" d="M256.5,61.1c0-4,2.2-6.8,6.7-8.6l0.1-0.3c-2.1-1.1-3.2-2.9-3.2-5.5c0-2.6,1.5-4.6,4.4-6.2
		c-4-2.2-6-5.7-6-10.5c0-4.8,1.5-8.3,4.4-10.4c2.9-2.1,6.8-3.2,11.5-3.2c1.9,0,3.8,0.2,5.7,0.6h11.9c1.5,0,2.2,1.2,2.2,3.7V22
		c0,2.3-0.6,3.5-1.8,3.5s-2.3-0.1-3.1-0.3l-0.1,0.3c0.8,1,1.2,2.4,1.2,4.1c0,4.4-1.4,7.7-4.2,9.8c-2.8,2.2-6.4,3.2-10.9,3.2
		c-3,0-4.5,0.7-4.5,2c0,1.4,1.9,2.3,5.8,2.7c3.9,0.3,7.5,1.2,10.8,2.4c1.6,0.6,3,1.7,4.1,3.3c1.1,1.6,1.7,3.5,1.7,5.7
		c0,3.8-1.7,6.8-5.2,9.1c-3.5,2.3-8.1,3.4-13.8,3.4C262.4,71.3,256.5,67.9,256.5,61.1z M267.2,59.4c0,2.2,2.6,3.3,7.7,3.3
		c5.1,0,7.7-1.2,7.7-3.6c0-1.1-0.8-2-2.5-2.5c-1.6-0.5-4.6-0.9-8.9-1.2C268.5,56.3,267.2,57.6,267.2,59.4z M270.5,33.5
		c1,0.9,2.4,1.3,4,1.3c1.6,0,3-0.4,4-1.3c1-0.9,1.6-2.2,1.6-3.9c0-1.7-0.5-3.1-1.6-3.9c-1-0.9-2.4-1.3-4-1.3c-1.6,0-3,0.4-4,1.3
		c-1,0.9-1.6,2.2-1.6,3.9C268.9,31.3,269.5,32.6,270.5,33.5z"/>
</g>
<g>
	<rect x="0" y="3.9" fill="#19AE5C" width="49.7" height="12.9"/>
	<rect x="0" y="23.3" fill="#19AE5C" width="38.1" height="12.9"/>
	<rect x="0" y="42.8" fill="#19AE5C" width="49.7" height="12.9"/>
</g>
</svg>
